<svg width="18" height="17" viewBox="0 0 18 17" fill="none" xmlns="http://www.w3.org/2000/svg">
<path d="M6.13131 10.4738H11.6576M6.13131 6.52648H9.28938M10.6076 15.5185C13.9107 15.2998 16.5412 12.6314 16.7575 9.28172C16.7994 8.62646 16.7994 7.94752 16.7575 7.29227C16.5412 3.94335 13.9107 1.27654 10.6076 1.05628C9.46672 0.981098 8.32215 0.981098 7.1813 1.05628C3.87817 1.27575 1.24768 3.94335 1.03137 7.29305C0.989545 7.95555 0.989545 8.62002 1.03137 9.28251C1.11031 10.5022 1.64952 11.632 2.28504 12.5856C2.65372 13.2527 2.41056 14.0856 2.02609 14.8143C1.74978 15.3393 1.61083 15.6014 1.72215 15.7909C1.83267 15.9803 2.08135 15.9866 2.57793 15.9985C3.56081 16.0222 4.22317 15.7443 4.74896 15.3566C5.04659 15.1364 5.19579 15.0267 5.29842 15.014C5.40106 15.0014 5.60395 15.0851 6.00815 15.2509C6.37131 15.4009 6.79367 15.4932 7.18051 15.5193C8.3055 15.5935 9.48101 15.5935 10.6084 15.5193" stroke="#CCCCCC" stroke-width="1.5" stroke-linecap="round" stroke-linejoin="round"/>
</svg>
