<svg width="30" height="30" viewBox="0 0 30 30" fill="none" xmlns="http://www.w3.org/2000/svg">
<path fill-rule="evenodd" clip-rule="evenodd" d="M0 1.50007C0 1.10223 0.158043 0.720679 0.439361 0.439361C0.720679 0.158043 1.10223 3.41994e-08 1.50007 3.41994e-08H3.24766C3.95027 -0.000106008 4.63064 0.246393 5.17013 0.696521C5.70963 1.14665 6.07403 1.77185 6.1998 2.46312L6.84333 6.00029H19.7619C20.8847 6.00053 21.9668 6.42043 22.7958 7.17757C23.6248 7.9347 24.1409 8.97438 24.2427 10.0925L24.8487 16.7633C24.9247 16.8153 24.9957 16.8743 25.0617 16.9403L27.6223 19.5009H28.5014C28.8992 19.5009 29.2808 19.659 29.5621 19.9403C29.8434 20.2216 30.0014 20.6032 30.0014 21.001C30.0014 21.3988 29.8434 21.7804 29.5621 22.0617C29.2808 22.343 28.8992 22.5011 28.5014 22.5011H27.0013C26.6035 22.501 26.222 22.3429 25.9407 22.0616L25.2702 21.391L25.3947 22.7681C26.1944 23.0882 26.8595 23.6737 27.2783 24.4264C27.6971 25.1791 27.844 26.0531 27.6944 26.9013C27.5447 27.7496 27.1076 28.5205 26.4565 29.0844C25.8055 29.6484 24.9801 29.971 24.1192 29.9981C23.2582 30.0252 22.4142 29.7551 21.729 29.2332C21.0437 28.7113 20.559 27.9694 20.3563 27.1322C20.1537 26.2951 20.2453 25.4136 20.616 24.6361C20.9866 23.8586 21.6136 23.2323 22.3916 22.8626L22.0856 19.5009H17.8764C18.1545 21.1478 17.9688 22.8396 17.3402 24.387C16.7116 25.9344 15.6648 27.2764 14.317 28.2627C12.9692 29.2491 11.3735 29.841 9.70845 29.9722C8.0434 30.1034 6.3747 29.7687 4.88905 29.0055C3.40339 28.2423 2.15939 27.0808 1.29624 25.651C0.433077 24.2211 -0.0151891 22.5793 0.00159152 20.9091C0.0183721 19.239 0.499538 17.6065 1.39125 16.1943C2.28297 14.782 3.55005 13.6458 5.05074 12.9126L3.24766 3.00014H1.50007C1.10223 3.00014 0.720679 2.8421 0.439361 2.56078C0.158043 2.27946 0 1.89792 0 1.50007ZM7.94588 12.0606C9.69365 11.8544 11.4635 12.1651 13.0366 12.9542C14.6096 13.7434 15.9167 14.9764 16.7963 16.5008H21.8125L21.2545 10.3655C21.2208 9.99279 21.0491 9.64613 20.7729 9.39356C20.4968 9.141 20.1362 9.00078 19.7619 9.00043H7.38785L7.94588 12.0606ZM9.00043 15.0007C7.4419 15.05 5.9637 15.7038 4.87866 16.8237C3.79363 17.9436 3.18691 19.4417 3.18691 21.001C3.18691 22.5603 3.79363 24.0584 4.87866 25.1783C5.9637 26.2982 7.4419 26.952 9.00043 27.0013C10.5918 27.0013 12.118 26.3691 13.2433 25.2438C14.3685 24.1186 15.0007 22.5924 15.0007 21.001C15.0007 19.4096 14.3685 17.8834 13.2433 16.7582C12.118 15.6329 10.5918 15.0007 9.00043 15.0007ZM24.0011 25.5012C23.8022 25.5012 23.6115 25.5802 23.4708 25.7209C23.3301 25.8616 23.2511 26.0523 23.2511 26.2513C23.2511 26.4502 23.3301 26.641 23.4708 26.7816C23.6115 26.9223 23.8022 27.0013 24.0011 27.0013C24.2001 27.0013 24.3908 26.9223 24.5315 26.7816C24.6722 26.641 24.7512 26.4502 24.7512 26.2513C24.7512 26.0523 24.6722 25.8616 24.5315 25.7209C24.3908 25.5802 24.2001 25.5012 24.0011 25.5012Z" fill="#282828"/>
</svg>
