<svg width="14" height="20" viewBox="0 0 14 20" fill="none" xmlns="http://www.w3.org/2000/svg">
<path fill-rule="evenodd" clip-rule="evenodd" d="M7.75 16.96V20H6.25V16.96C4.53323 16.775 2.94541 15.962 1.79173 14.6773C0.638056 13.3925 -7.26502e-05 11.7267 6.20374e-09 10V8H1.5V10C1.5 11.4587 2.07946 12.8576 3.11091 13.8891C4.14236 14.9205 5.54131 15.5 7 15.5C8.45869 15.5 9.85764 14.9205 10.8891 13.8891C11.9205 12.8576 12.5 11.4587 12.5 10V8H14V10C14.0001 11.7267 13.3619 13.3925 12.2083 14.6773C11.0546 15.962 9.46677 16.775 7.75 16.96ZM3 4C3 2.93913 3.42143 1.92172 4.17157 1.17157C4.92172 0.421427 5.93913 0 7 0C8.06087 0 9.07828 0.421427 9.82843 1.17157C10.5786 1.92172 11 2.93913 11 4V10C11 11.0609 10.5786 12.0783 9.82843 12.8284C9.07828 13.5786 8.06087 14 7 14C5.93913 14 4.92172 13.5786 4.17157 12.8284C3.42143 12.0783 3 11.0609 3 10V4Z" fill="#A2A2A2"/>
</svg>
