<svg width="14" height="17" viewBox="0 0 14 17" fill="none" xmlns="http://www.w3.org/2000/svg">
<path d="M1.385 16.462V16L2.885 15C2.081 15 1.39933 14.72 0.84 14.16C0.28 13.6013 0 12.92 0 12.116V3C0 1.93733 0.545334 1.17167 1.636 0.703C2.728 0.234333 4.516 0 7 0C9.50867 0 11.3023 0.231333 12.381 0.694C13.4597 1.15667 13.9993 1.92533 14 3V12.116C14 12.9193 13.72 13.601 13.16 14.161C12.6007 14.7203 11.9193 15 11.116 15L12.616 16V16.462H1.385ZM1 8H6.5V3.539H1V8ZM7.5 8H13V3.539H7.5V8ZM3.505 12.616C3.81567 12.616 4.07833 12.507 4.293 12.289C4.50833 12.071 4.616 11.8067 4.616 11.496C4.616 11.1847 4.507 10.9213 4.289 10.706C4.071 10.492 3.80667 10.385 3.496 10.385C3.18467 10.385 2.92133 10.4937 2.706 10.711C2.49133 10.929 2.384 11.1933 2.384 11.504C2.384 11.8153 2.493 12.0787 2.711 12.294C2.929 12.5087 3.19333 12.616 3.504 12.616M10.504 12.616C10.8153 12.616 11.0787 12.507 11.294 12.289C11.508 12.071 11.615 11.8067 11.615 11.496C11.615 11.1847 11.5063 10.9213 11.289 10.706C11.071 10.492 10.8063 10.385 10.495 10.385C10.1843 10.385 9.92167 10.4937 9.707 10.711C9.49167 10.929 9.384 11.1933 9.384 11.504C9.384 11.8153 9.493 12.0787 9.711 12.294C9.929 12.5087 10.1933 12.616 10.504 12.616Z" fill="#282828"/>
</svg>
