<svg width="15" height="15" viewBox="0 0 15 15" fill="none" xmlns="http://www.w3.org/2000/svg">
<path d="M14.9648 11.3217C14.79 11.1355 14.1729 10.585 13.0385 9.85678C11.8957 9.12217 11.053 8.66412 10.8112 8.55731C10.7899 8.54786 10.7664 8.5444 10.7433 8.54729C10.7202 8.55018 10.6983 8.55932 10.68 8.57372C10.2906 8.87741 9.63498 9.43523 9.59982 9.46537C9.37281 9.6599 9.37281 9.6599 9.18698 9.5993C8.86019 9.49215 7.84499 8.95308 6.96038 8.06646C6.07576 7.17983 5.5089 6.13952 5.40175 5.81306C5.34048 5.6269 5.34048 5.6269 5.53568 5.39989C5.56582 5.36473 6.12398 4.70914 6.42766 4.32007C6.44207 4.30174 6.45121 4.27984 6.4541 4.25672C6.45699 4.23359 6.45352 4.21012 6.44407 4.18881C6.33726 3.94673 5.87922 3.10431 5.1446 1.96154C4.41535 0.827478 3.86556 0.210391 3.6794 0.0356104C3.66231 0.0194895 3.6412 0.00827485 3.61828 0.00314821C3.59535 -0.00197843 3.57147 -0.000827203 3.54915 0.00648047C2.89841 0.230116 2.27054 0.51546 1.67411 0.858617C1.09835 1.19332 0.553257 1.57819 0.0451765 2.00875C0.0274406 2.02383 0.0141436 2.04345 0.00671139 2.06551C-0.000720834 2.08757 -0.00200785 2.11124 0.00298829 2.13398C0.0729673 2.4601 0.40746 3.82151 1.44543 5.70726C2.50449 7.63185 3.23843 8.61792 4.7937 10.1678C6.34898 11.7178 7.36619 12.4959 9.29279 13.555C11.1785 14.5929 12.5406 14.9277 12.8661 14.9971C12.8889 15.002 12.9126 15.0007 12.9347 14.9933C12.9568 14.9858 12.9765 14.9726 12.9916 14.9549C13.4221 14.4468 13.8069 13.9017 14.1414 13.3259C14.4845 12.7295 14.7699 12.1016 14.9936 11.4509C15.0007 11.4287 15.0018 11.4051 14.9968 11.3824C14.9917 11.3596 14.9807 11.3387 14.9648 11.3217Z" fill="#282828"/>
</svg>
