<svg width="15" height="15" viewBox="0 0 15 15" fill="none" xmlns="http://www.w3.org/2000/svg">
<path d="M7.5 0C3.358 0 0 3.358 0 7.5C0 11.642 3.358 15 7.5 15C11.642 15 15 11.642 15 7.5C15 3.358 11.642 0 7.5 0ZM7.24975 1.75C7.51497 1.75 7.76932 1.85536 7.95686 2.04289C8.14439 2.23043 8.24975 2.48478 8.24975 2.75C8.24975 3.01522 8.14439 3.26957 7.95686 3.45711C7.76932 3.64464 7.51497 3.75 7.24975 3.75C6.98458 3.74993 6.73029 3.64455 6.5428 3.45702C6.35532 3.26949 6.25 3.01517 6.25 2.75C6.25 2.19725 6.6975 1.75 7.24975 1.75ZM6.84375 12.75C5.138 12.75 3.75 11.3647 3.75 9.6615C3.75 8.31925 4.6125 7.17475 5.8125 6.75V7.8795C5.49946 8.06006 5.23943 8.31979 5.0585 8.63262C4.87758 8.94545 4.78214 9.30037 4.78175 9.66175C4.78175 10.797 5.7065 11.7207 6.84375 11.7207C7.20775 11.7206 7.56523 11.6241 7.87988 11.4411C8.19453 11.2581 8.45515 10.9951 8.63525 10.6788L9.25 11.599C8.96035 11.9584 8.59387 12.2483 8.17747 12.4475C7.76107 12.6467 7.30534 12.7501 6.84375 12.75ZM10.8705 12.5L9.02725 9.648H6.75V4.5H7.74775V6.559H9.74325V7.58875H7.74775V8.618H9.561L11.044 10.9135L11.664 10.2495L12.25 11.1005L10.8705 12.5Z" fill="black"/>
</svg>
