<svg width="15" height="15" viewBox="0 0 15 15" fill="none" xmlns="http://www.w3.org/2000/svg">
<path d="M3.33333 12.5H5.83333V9.16667H6.66667V7.08333C6.66667 6.625 6.50361 6.23278 6.1775 5.90667C5.85139 5.58056 5.45889 5.41722 5 5.41667H4.16667C3.70833 5.41667 3.31611 5.58 2.99 5.90667C2.66389 6.23333 2.50056 6.62556 2.5 7.08333V9.16667H3.33333V12.5ZM4.58333 4.58333C4.875 4.58333 5.12167 4.4825 5.32333 4.28083C5.525 4.07917 5.62556 3.83278 5.625 3.54167C5.62444 3.25056 5.52361 3.00389 5.3225 2.80167C5.12139 2.59944 4.875 2.49889 4.58333 2.5C4.29167 2.50111 4.045 2.60194 3.84333 2.8025C3.64167 3.00306 3.54111 3.24944 3.54167 3.54167C3.54222 3.83389 3.64306 4.08055 3.84417 4.28167C4.04528 4.48278 4.29167 4.58333 4.58333 4.58333ZM8.33333 6.66667H12.5L10.4167 3.33333L8.33333 6.66667ZM10.4167 11.6667L12.5 8.33333H8.33333L10.4167 11.6667ZM1.66667 15C1.20833 15 0.816111 14.8369 0.49 14.5108C0.163889 14.1847 0.000555556 13.7922 0 13.3333V1.66667C0 1.20833 0.163333 0.816111 0.49 0.49C0.816667 0.163889 1.20889 0.000555556 1.66667 0H13.3333C13.7917 0 14.1842 0.163333 14.5108 0.49C14.8375 0.816667 15.0006 1.20889 15 1.66667V13.3333C15 13.7917 14.8369 14.1842 14.5108 14.5108C14.1847 14.8375 13.7922 15.0006 13.3333 15H1.66667Z" fill="#282828"/>
</svg>
