<svg width="10" height="12" viewBox="0 0 10 12" fill="none" xmlns="http://www.w3.org/2000/svg">
<path d="M8.29168 8.48526L4.85714 12L1.4226 8.48526C0.743327 7.79011 0.280735 6.90444 0.0933264 5.94025C-0.0940826 4.97606 0.00210843 3.97664 0.369736 3.0684C0.737363 2.16015 1.35991 1.38386 2.15867 0.837687C2.95742 0.291517 3.89649 0 4.85714 0C5.81779 0 6.75687 0.291517 7.55562 0.837687C8.35437 1.38386 8.97692 2.16015 9.34455 3.0684C9.71218 3.97664 9.80837 4.97606 9.62096 5.94025C9.43355 6.90444 8.97096 7.79011 8.29168 8.48526ZM4.85714 7.17966C5.42967 7.17966 5.97875 6.94691 6.38359 6.53262C6.78843 6.11832 7.01587 5.55642 7.01587 4.97052C7.01587 4.38462 6.78843 3.82272 6.38359 3.40842C5.97875 2.99413 5.42967 2.76138 4.85714 2.76138C4.28461 2.76138 3.73553 2.99413 3.33069 3.40842C2.92585 3.82272 2.69841 4.38462 2.69841 4.97052C2.69841 5.55642 2.92585 6.11832 3.33069 6.53262C3.73553 6.94691 4.28461 7.17966 4.85714 7.17966ZM4.85714 6.07509C4.57088 6.07509 4.29634 5.95872 4.09392 5.75157C3.8915 5.54442 3.77778 5.26347 3.77778 4.97052C3.77778 4.67757 3.8915 4.39662 4.09392 4.18947C4.29634 3.98232 4.57088 3.86595 4.85714 3.86595C5.14341 3.86595 5.41795 3.98232 5.62037 4.18947C5.82279 4.39662 5.93651 4.67757 5.93651 4.97052C5.93651 5.26347 5.82279 5.54442 5.62037 5.75157C5.41795 5.95872 5.14341 6.07509 4.85714 6.07509Z" fill="#282828"/>
</svg>
