<svg width="31" height="34" viewBox="0 0 31 34" fill="none" xmlns="http://www.w3.org/2000/svg">
<path d="M6.46438 9.14287C8.43683 9.14287 10.0358 7.54388 10.0358 5.57143C10.0358 3.59899 8.43683 2 6.46438 2C4.49193 2 2.89294 3.59899 2.89294 5.57143C2.89294 7.54388 4.49193 9.14287 6.46438 9.14287Z" stroke="#282828" stroke-width="3" stroke-linecap="round" stroke-linejoin="round"/>
<path d="M22.5358 9.14287C24.5082 9.14287 26.1072 7.54388 26.1072 5.57143C26.1072 3.59899 24.5082 2 22.5358 2C20.5633 2 18.9644 3.59899 18.9644 5.57143C18.9644 7.54388 20.5633 9.14287 22.5358 9.14287Z" stroke="#282828" stroke-width="3" stroke-linecap="round" stroke-linejoin="round"/>
<path d="M2 12.3571H10.9286L9.14287 31.9999H3.78572L2 12.3571ZM18.0715 12.3571H27L28.7858 22.1785H26.1072L25.2143 31.9999H19.8572L18.9643 22.1785H16.2857L18.0715 12.3571Z" stroke="#282828" stroke-width="3" stroke-linecap="round" stroke-linejoin="round"/>
</svg>
