<svg width="27" height="25" viewBox="0 0 27 25" fill="none" xmlns="http://www.w3.org/2000/svg">
<path d="M12.6159 18.3416C12.7571 18.4223 12.917 18.4648 13.0796 18.4648C13.2423 18.4648 13.4022 18.4223 13.5434 18.3416C13.8296 18.1769 20.5522 14.2531 20.5522 7.25014C20.4935 5.30788 19.6809 3.46479 18.2865 2.11142C16.8921 0.758058 15.0256 0.000759971 13.0825 5.71679e-07C11.1393 -0.000758828 9.27222 0.75508 7.87681 2.10736C6.48139 3.45963 5.66731 5.30208 5.60706 7.2443C5.60706 14.2531 12.3332 18.1711 12.6159 18.3416ZM13.0831 4.44077C13.6376 4.44077 14.1797 4.60519 14.6407 4.91325C15.1017 5.22131 15.4611 5.65916 15.6733 6.17144C15.8855 6.68371 15.941 7.24741 15.8328 7.79124C15.7246 8.33508 15.4576 8.83462 15.0655 9.2267C14.6735 9.61878 14.1739 9.88579 13.6301 9.99396C13.0863 10.1021 12.5226 10.0466 12.0103 9.83443C11.498 9.62224 11.0602 9.2629 10.7521 8.80186C10.444 8.34082 10.2796 7.79879 10.2796 7.2443C10.2796 6.50076 10.575 5.78767 11.1008 5.26191C11.6265 4.73614 12.3396 4.44077 13.0831 4.44077ZM26.1663 19.3929C26.1663 23.0352 19.425 25 13.0831 25C6.74132 25 0 23.0352 0 19.3929C0 17.6886 1.54428 16.1794 4.34898 15.1444C4.57898 15.0684 4.82951 15.0847 5.04773 15.1899C5.26596 15.295 5.43483 15.4808 5.51876 15.708C5.60268 15.9352 5.59509 16.1862 5.4976 16.4079C5.4001 16.6296 5.22031 16.8049 4.99613 16.8966C3.06753 17.6104 1.86902 18.5659 1.86902 19.3929C1.86902 20.9536 6.13506 23.131 13.0831 23.131C20.0312 23.131 24.2973 20.9536 24.2973 19.3929C24.2973 18.5659 23.0988 17.6104 21.1702 16.8978C20.946 16.806 20.7662 16.6308 20.6687 16.4091C20.5712 16.1873 20.5636 15.9364 20.6475 15.7092C20.7315 15.4819 20.9003 15.2962 21.1186 15.191C21.3368 15.0859 21.5873 15.0696 21.8173 15.1456C24.622 16.1794 26.1663 17.6886 26.1663 19.3929Z" fill="#3DB44A"/>
</svg>
