<svg width="21" height="25" viewBox="0 0 21 25" fill="none" xmlns="http://www.w3.org/2000/svg">
<path d="M20.462 9.31352C20.462 9.07594 20.3891 8.85608 20.264 8.67477L20.2661 8.67894L20.2036 8.59557L20.1984 8.58932C20.1777 8.56435 20.1557 8.54035 20.1328 8.51742L20.1223 8.507L20.0932 8.47678L11.9425 0.327192C11.9193 0.304177 11.8949 0.28227 11.8696 0.261546L11.8467 0.240705L11.7904 0.199025L11.7623 0.179226L11.7018 0.142756L11.6758 0.127126L11.5914 0.0864872L11.5559 0.071899L11.4997 0.0510587L11.459 0.0385545L11.3955 0.0218823L11.3632 0.0145882L11.2673 0H1.13684C0.511629 0 0.00416806 0.504335 0 1.1285V23.8632C0 24.4915 0.509545 25 1.13684 25H19.3242C19.9525 25 20.461 24.4905 20.461 23.8632V9.3427L20.462 9.31352ZM12.2749 3.869L16.5784 8.17773H12.2749V3.869ZM2.27263 22.7274V2.26534H10.0044V9.31665C10.0044 9.94498 10.5139 10.4535 11.1412 10.4535H18.1925V22.7274H2.27263Z" fill="#CCCCCC"/>
<path d="M14.0182 18.1801H6.40738C6.10587 18.1801 5.81671 18.2999 5.60351 18.5131C5.39031 18.7263 5.27054 19.0154 5.27054 19.3169C5.27054 19.6184 5.39031 19.9076 5.60351 20.1208C5.81671 20.334 6.10587 20.4538 6.40738 20.4538H6.44072H6.43864H14.0495C14.351 20.4538 14.6402 20.334 14.8534 20.1208C15.0666 19.9076 15.1863 19.6184 15.1863 19.3169C15.1863 19.0154 15.0666 18.7263 14.8534 18.5131C14.6402 18.2999 14.351 18.1801 14.0495 18.1801H14.0162H14.0182ZM14.0182 13.6338H6.40738C6.10587 13.6338 5.81671 13.7536 5.60351 13.9668C5.39031 14.18 5.27054 14.4691 5.27054 14.7706C5.27054 15.0721 5.39031 15.3613 5.60351 15.5745C5.81671 15.7877 6.10587 15.9075 6.40738 15.9075H6.44072H6.43864H14.0495C14.351 15.9075 14.6402 15.7877 14.8534 15.5745C15.0666 15.3613 15.1863 15.0721 15.1863 14.7706C15.1863 14.4691 15.0666 14.18 14.8534 13.9668C14.6402 13.7536 14.351 13.6338 14.0495 13.6338H14.0162H14.0182Z" fill="#CCCCCC"/>
</svg>
