<svg width="13" height="15" viewBox="0 0 13 15" fill="none" xmlns="http://www.w3.org/2000/svg">
<path d="M6.09834 0.000133764C2.89671 0.000133764 0 2.45471 0 6.25093C0 8.67502 1.86762 11.526 5.59522 14.8115C5.88489 15.063 6.3194 15.063 6.60907 14.8115C10.3291 11.526 12.1967 8.67502 12.1967 6.25093C12.1967 2.45471 9.29996 0.000133764 6.09834 0.000133764ZM6.09834 7.62305C5.25981 7.62305 4.57375 6.93699 4.57375 6.09847C4.57375 5.25995 5.25981 4.57389 6.09834 4.57389C6.93686 4.57389 7.62292 5.25995 7.62292 6.09847C7.62292 6.93699 6.93686 7.62305 6.09834 7.62305Z" fill="#282828"/>
</svg>
