<svg width="15" height="15" viewBox="0 0 15 15" fill="none" xmlns="http://www.w3.org/2000/svg">
<path d="M3.33333 12.5H6.08333L10.25 5H11.6667C12.0139 5 12.3092 4.87861 12.5525 4.63583C12.7958 4.39305 12.9172 4.09778 12.9167 3.75C12.9161 3.40222 12.7947 3.10722 12.5525 2.865C12.3103 2.62278 12.015 2.50111 11.6667 2.5H8.91667L4.75 10H3.33333C2.98611 10 2.69111 10.1217 2.44833 10.365C2.20556 10.6083 2.08389 10.9033 2.08333 11.25C2.08278 11.5967 2.20444 11.8919 2.44833 12.1358C2.69222 12.3797 2.98722 12.5011 3.33333 12.5ZM1.66667 15C1.20833 15 0.816111 14.8369 0.49 14.5108C0.163889 14.1847 0.000555556 13.7922 0 13.3333V1.66667C0 1.20833 0.163333 0.816111 0.49 0.49C0.816667 0.163889 1.20889 0.000555556 1.66667 0H13.3333C13.7917 0 14.1842 0.163333 14.5108 0.49C14.8375 0.816667 15.0006 1.20889 15 1.66667V13.3333C15 13.7917 14.8369 14.1842 14.5108 14.5108C14.1847 14.8375 13.7922 15.0006 13.3333 15H1.66667Z" fill="black"/>
</svg>
