<svg width="17" height="15" viewBox="0 0 17 15" fill="none" xmlns="http://www.w3.org/2000/svg">
<path d="M10.0985 6.21484C9.95126 6.06767 9.75163 5.985 9.54349 5.985C9.33534 5.985 9.13571 6.06767 8.9885 6.21484L8.43352 6.76903C8.13743 7.05501 7.74085 7.21326 7.32921 7.20968C6.91757 7.2061 6.52381 7.04099 6.23272 6.74991C5.94164 6.45882 5.77653 6.06506 5.77295 5.65342C5.76938 5.24178 5.92762 4.84521 6.2136 4.54911L10.633 0.1281C11.6794 -0.109886 12.7741 -0.0119424 13.7615 0.408003C14.749 0.827949 15.5789 1.54852 16.1333 2.46726C16.6877 3.38599 16.9383 4.45612 16.8496 5.52549C16.7608 6.59486 16.3371 7.60902 15.6389 8.42377L13.9841 10.0997L10.0985 6.21484ZM1.49508 1.49554C2.30713 0.683004 3.36961 0.168272 4.51056 0.0346457C5.65151 -0.0989805 6.80417 0.156318 7.78199 0.759224L5.10285 3.43915C4.52259 4.01825 4.19183 4.80132 4.18124 5.62105C4.17064 6.44077 4.48106 7.23213 5.04616 7.82603C5.61126 8.41994 6.38622 8.76928 7.20546 8.79942C8.0247 8.82956 8.82324 8.5381 9.43045 7.98732L9.54349 7.87978L12.8742 11.2097L9.54349 14.5403C9.24907 14.8347 8.84982 15 8.43352 15C8.01723 15 7.61797 14.8347 7.32356 14.5403L1.4943 8.71107C0.537511 7.75421 0 6.45646 0 5.1033C0 3.75015 0.538296 2.4524 1.49508 1.49554Z" fill="#282828"/>
</svg>
