<svg width="28" height="25" viewBox="0 0 28 25" fill="none" xmlns="http://www.w3.org/2000/svg">
<mask id="path-1-inside-1_304_797" fill="white">
<path d="M13.7602 21.1853L13.624 21.3215L13.4741 21.1853C7.00273 15.3133 2.7248 11.4305 2.7248 7.49319C2.7248 4.76839 4.76839 2.7248 7.49319 2.7248C9.59128 2.7248 11.6349 4.08719 12.3569 5.94005H14.891C15.6131 4.08719 17.6567 2.7248 19.7548 2.7248C22.4796 2.7248 24.5232 4.76839 24.5232 7.49319C24.5232 11.4305 20.2452 15.3133 13.7602 21.1853ZM19.7548 0C17.3842 0 15.109 1.10354 13.624 2.83379C12.139 1.10354 9.86376 0 7.49319 0C3.297 0 0 3.28338 0 7.49319C0 12.6294 4.63215 16.8392 11.6485 23.2016L13.624 25L15.5995 23.2016C22.6158 16.8392 27.248 12.6294 27.248 7.49319C27.248 3.28338 23.951 0 19.7548 0Z"/>
</mask>
<path d="M13.7602 21.1853L13.624 21.3215L13.4741 21.1853C7.00273 15.3133 2.7248 11.4305 2.7248 7.49319C2.7248 4.76839 4.76839 2.7248 7.49319 2.7248C9.59128 2.7248 11.6349 4.08719 12.3569 5.94005H14.891C15.6131 4.08719 17.6567 2.7248 19.7548 2.7248C22.4796 2.7248 24.5232 4.76839 24.5232 7.49319C24.5232 11.4305 20.2452 15.3133 13.7602 21.1853ZM19.7548 0C17.3842 0 15.109 1.10354 13.624 2.83379C12.139 1.10354 9.86376 0 7.49319 0C3.297 0 0 3.28338 0 7.49319C0 12.6294 4.63215 16.8392 11.6485 23.2016L13.624 25L15.5995 23.2016C22.6158 16.8392 27.248 12.6294 27.248 7.49319C27.248 3.28338 23.951 0 19.7548 0Z" fill="#3DB44A"/>
<path d="M13.7602 21.1853L11.7466 18.9615L11.6915 19.0114L11.6389 19.064L13.7602 21.1853ZM13.624 21.3215L11.6059 23.5413L13.7226 25.4656L15.7453 23.4428L13.624 21.3215ZM13.4741 21.1853L15.4922 18.9655L15.49 18.9636L13.4741 21.1853ZM12.3569 5.94005L9.56171 7.02938L10.3063 8.94005H12.3569V5.94005ZM14.891 5.94005V8.94005H16.9416L17.6863 7.02938L14.891 5.94005ZM13.624 2.83379L11.3475 4.78764L13.624 7.44008L15.9005 4.78764L13.624 2.83379ZM11.6485 23.2016L13.668 20.9832L13.6637 20.9793L11.6485 23.2016ZM13.624 25L11.6044 27.2184L13.624 29.0569L15.6435 27.2184L13.624 25ZM15.5995 23.2016L13.5842 20.9793L13.5799 20.9832L15.5995 23.2016ZM11.6389 19.064L11.5027 19.2002L15.7453 23.4428L15.8815 23.3066L11.6389 19.064ZM15.642 19.1017L15.4922 18.9655L11.4561 23.4051L11.6059 23.5413L15.642 19.1017ZM15.49 18.9636C12.2011 15.9793 9.67964 13.6837 7.95282 11.6642C6.19688 9.61052 5.7248 8.3549 5.7248 7.49319H-0.275204C-0.275204 10.5688 1.39167 13.2233 3.39255 15.5634C5.42254 17.9375 8.2757 20.5193 11.4582 23.407L15.49 18.9636ZM5.7248 7.49319C5.7248 6.42525 6.42525 5.7248 7.49319 5.7248V-0.275204C3.11154 -0.275204 -0.275204 3.11154 -0.275204 7.49319H5.7248ZM7.49319 5.7248C8.42498 5.7248 9.31355 6.3926 9.56171 7.02938L15.1522 4.85073C13.9562 1.78178 10.7576 -0.275204 7.49319 -0.275204V5.7248ZM12.3569 8.94005H14.891V2.94005H12.3569V8.94005ZM17.6863 7.02938C17.9344 6.3926 18.823 5.7248 19.7548 5.7248V-0.275204C16.4904 -0.275204 13.2918 1.78178 12.0958 4.85073L17.6863 7.02938ZM19.7548 5.7248C20.8227 5.7248 21.5232 6.42525 21.5232 7.49319H27.5232C27.5232 3.11154 24.1364 -0.275204 19.7548 -0.275204V5.7248ZM21.5232 7.49319C21.5232 8.35452 21.0514 9.61002 19.2943 11.6631C17.5664 13.6822 15.0417 15.9779 11.7466 18.9615L15.7738 23.4091C18.9638 20.5207 21.8205 17.9391 23.8528 15.5644C25.856 13.2238 27.5232 10.5692 27.5232 7.49319H21.5232ZM19.7548 -3C16.4773 -3 13.3814 -1.48983 11.3475 0.879937L15.9005 4.78764C16.8366 3.69692 18.2911 3 19.7548 3V-3ZM15.9005 0.879937C13.8666 -1.48983 10.7707 -3 7.49319 -3V3C8.95685 3 10.4113 3.69692 11.3475 4.78764L15.9005 0.879937ZM7.49319 -3C1.64372 -3 -3 1.62295 -3 7.49319H3C3 4.94381 4.95028 3 7.49319 3V-3ZM-3 7.49319C-3 11.0476 -1.37085 14.0443 0.870328 16.7862C3.07853 19.4878 6.18409 22.2963 9.63328 25.424L13.6637 20.9793C10.0966 17.7446 7.37788 15.267 5.51591 12.989C3.68692 10.7514 3 9.07504 3 7.49319H-3ZM9.62896 25.4201L11.6044 27.2184L15.6435 22.7816L13.668 20.9832L9.62896 25.4201ZM15.6435 27.2184L17.619 25.4201L13.5799 20.9832L11.6044 22.7816L15.6435 27.2184ZM17.6147 25.424C21.0639 22.2963 24.1694 19.4878 26.3776 16.7862C28.6188 14.0443 30.248 11.0476 30.248 7.49319H24.248C24.248 9.07504 23.561 10.7514 21.732 12.989C19.8701 15.267 17.1514 17.7446 13.5842 20.9793L17.6147 25.424ZM30.248 7.49319C30.248 1.62295 25.6042 -3 19.7548 -3V3C22.2977 3 24.248 4.94381 24.248 7.49319H30.248Z" fill="#3DB44A" mask="url(#path-1-inside-1_304_797)"/>
</svg>
