<svg width="15" height="15" viewBox="0 0 15 15" fill="none" xmlns="http://www.w3.org/2000/svg">
<path d="M7.5 0C3.36462 0 0 3.36462 0 7.5C0 11.6354 3.36462 15 7.5 15C11.6354 15 15 11.6354 15 7.5C15 3.36462 11.6354 0 7.5 0ZM7.5 1.15385C11.0117 1.15385 13.8462 3.98827 13.8462 7.5C13.8462 11.0117 11.0117 13.8462 7.5 13.8462C3.98827 13.8462 1.15385 11.0117 1.15385 7.5C1.15385 3.98827 3.98827 1.15385 7.5 1.15385ZM6.92308 4.03846V6.92308H4.03846V8.07692H6.92308V10.9615H8.07692V8.07692H10.9615V6.92308H8.07692V4.03846H6.92308Z" fill="#CCCCCC"/>
</svg>
