<svg width="90" height="90" viewBox="0 0 90 90" fill="none" xmlns="http://www.w3.org/2000/svg">
<rect x="0.5" y="0.5" width="89" height="89" rx="4.5" fill="#EFEFEF" stroke="#CCCCCC"/>
<path d="M58.75 53.75C58.75 54.413 58.4866 55.0489 58.0178 55.5178C57.5489 55.9866 56.913 56.25 56.25 56.25H33.75C33.087 56.25 32.4511 55.9866 31.9822 55.5178C31.5134 55.0489 31.25 54.413 31.25 53.75V40C31.25 39.337 31.5134 38.7011 31.9822 38.2322C32.4511 37.7634 33.087 37.5 33.75 37.5H38.75L41.25 33.75H48.75L51.25 37.5H56.25C56.913 37.5 57.5489 37.7634 58.0178 38.2322C58.4866 38.7011 58.75 39.337 58.75 40V53.75Z" stroke="white" stroke-width="2" stroke-linecap="round" stroke-linejoin="round"/>
<path d="M45 51.25C47.7614 51.25 50 49.0114 50 46.25C50 43.4886 47.7614 41.25 45 41.25C42.2386 41.25 40 43.4886 40 46.25C40 49.0114 42.2386 51.25 45 51.25Z" stroke="white" stroke-width="2" stroke-linecap="round" stroke-linejoin="round"/>
</svg>
